<?xml version="1.0" encoding="utf-8"?>
<!-- Generator: Adobe Illustrator 20.0.0, SVG Export Plug-In . SVG Version: 6.00 Build 0)  -->
<svg version="1.1" id="Layer_1" xmlns="http://www.w3.org/2000/svg" xmlns:xlink="http://www.w3.org/1999/xlink" x="0px" y="0px"
	 viewBox="0 0 180 180" style="enable-background:new 0 0 180 180;" xml:space="preserve">
<style type="text/css">
	.st0{fill:#F6F6F6;}
	.st1{fill:#0C81C1;}
</style>
<circle class="st0" cx="90" cy="90.2" r="90"/>
<g>
	<path class="st1" d="M123.3,50.8c3.1,4.2,4.6,9.4,4.6,15.3c0,6.1-1.5,11-4.6,14.7c-1.7,2.1-4.2,4-7.6,5.7c5.1,1.9,9,4.8,11.6,8.8
		c2.6,4,3.9,8.9,3.9,14.6c0,5.9-1.5,11.3-4.4,16c-1.9,3.1-4.2,5.7-7.1,7.9c-3.2,2.4-7,4.1-11.3,5c-4.3,0.9-9,1.4-14.2,1.4H49v-100
		h48.3C109.5,40.3,118.1,43.9,123.3,50.8z M68.9,57.5v22.1h24.3c4.3,0,7.9-0.8,10.6-2.5c2.7-1.7,4.1-4.6,4.1-8.8
		c0-4.7-1.8-7.7-5.4-9.2c-3.1-1-7.1-1.6-11.8-1.6L68.9,57.5L68.9,57.5z M68.9,96.1v26.7h24.3c4.3,0,7.7-0.6,10.1-1.8
		c4.4-2.2,6.6-6.3,6.6-12.5c0-5.2-2.1-8.8-6.4-10.7c-2.4-1.1-5.7-1.7-10-1.7H68.9z"/>
</g>
</svg>
