<?xml version="1.0" encoding="utf-8"?>
<!-- Generator: Adobe Illustrator 20.0.0, SVG Export Plug-In . SVG Version: 6.00 Build 0)  -->
<svg version="1.1" id="Layer_1" xmlns="http://www.w3.org/2000/svg" xmlns:xlink="http://www.w3.org/1999/xlink" x="0px" y="0px"
	 viewBox="0 0 180 180" style="enable-background:new 0 0 180 180;" xml:space="preserve">
<style type="text/css">
	.st0{fill:#F6F6F6;}
	.st1{fill:#434953;}
	.st2{fill:#333333;}
	.st3{fill:#0C81C1;}
	.st4{fill:#0772A2;}
	.st5{fill:#E9E9E8;}
	.st6{fill:#FFFFFF;}
</style>
<circle class="st0" cx="89.9" cy="89.8" r="90"/>
<g>
	<polygon class="st1" points="54.8,59.2 54.8,59.2 54.8,59.2 	"/>
	<polygon class="st2" points="79.9,51.6 74.2,51.6 74.2,43 79.9,43 79.9,39.8 71,39.8 71,43 71,43 71,51.6 71,51.6 71,54.8 
		79.9,54.8 	"/>
	<polygon class="st2" points="95,51.6 87.8,43 94.5,43 94.5,39.8 83.1,39.8 83.1,42.9 90.2,51.5 82.6,51.5 82.6,54.6 95,54.6 	"/>
	<polygon class="st2" points="109.8,51.6 102.7,43 109.3,43 109.3,39.8 97.9,39.8 97.9,42.9 105,51.5 97.4,51.5 97.4,54.6 
		109.8,54.6 	"/>
	<polygon id="_337847128" class="st3" points="119.2,131.1 125.5,60.1 125.6,59.2 124.7,59.2 55.1,59.2 54.2,59.2 54.3,60.1 
		60.6,131.1 60.7,131.7 61.2,131.8 89.6,139.7 90.1,139.7 118.6,131.8 119.1,131.7 	"/>
	<polygon id="_337847104" class="st4" points="120.1,64.2 89.9,64.2 89.9,134.6 114.4,127.8 	"/>
	<g>
		<polygon id="_337846984" class="st5" points="89.9,83.1 68.6,92 69.3,100.8 89.9,92 111.8,82.6 112.7,73.6 		"/>
		<polygon id="_337846144" class="st5" points="89.9,73.6 90,73.6 90.2,73.6 90.4,73.6 90.6,73.6 90.7,73.6 90.9,73.6 91.1,73.6 
			91.3,73.6 91.5,73.6 91.6,73.6 91.8,73.6 92,73.6 92.2,73.6 92.4,73.6 92.5,73.6 92.7,73.6 92.9,73.6 93.1,73.6 93.3,73.6 
			93.4,73.6 93.6,73.6 93.8,73.6 94,73.6 94.2,73.6 94.3,73.6 94.5,73.6 94.7,73.6 94.9,73.6 95.1,73.6 95.2,73.6 95.4,73.6 
			95.6,73.6 95.8,73.6 95.9,73.6 96.1,73.6 96.3,73.6 96.5,73.6 96.7,73.6 96.8,73.6 97,73.6 97.2,73.6 97.4,73.6 97.6,73.6 
			97.7,73.6 97.9,73.6 98.1,73.6 98.3,73.6 98.5,73.6 98.6,73.6 98.8,73.6 99,73.6 99.2,73.6 99.4,73.6 99.5,73.6 99.7,73.6 
			99.9,73.6 100.1,73.6 100.3,73.6 100.4,73.6 100.6,73.6 100.8,73.6 101,73.6 101.2,73.6 101.3,73.6 101.5,73.6 101.7,73.6 
			101.9,73.6 102.1,73.6 102.2,73.6 102.4,73.6 102.6,73.6 102.8,73.6 103,73.6 103.1,73.6 103.3,73.6 103.5,73.6 103.7,73.6 
			103.9,73.6 104,73.6 104.2,73.6 104.4,73.6 104.6,73.6 104.8,73.6 104.9,73.6 105.1,73.6 105.3,73.6 105.5,73.6 105.7,73.6 
			105.8,73.6 106,73.6 106.2,73.6 106.4,73.6 106.6,73.6 106.7,73.6 106.9,73.6 107.1,73.6 107.3,73.6 107.5,73.6 107.6,73.6 
			107.8,73.6 108,73.6 108.2,73.6 108.4,73.6 108.5,73.6 108.7,73.6 108.9,73.6 109.1,73.6 109.3,73.6 109.4,73.6 109.6,73.6 
			109.8,73.6 110,73.6 110.2,73.6 110.3,73.6 110.5,73.6 110.7,73.6 110.9,73.6 111.1,73.6 111.2,73.6 111.4,73.6 111.6,73.6 
			111.8,73.6 112,73.6 112.1,73.6 112.3,73.6 112.5,73.6 112.7,73.6 112.5,75.4 112.3,77.2 112.1,79 112,80.7 111.8,82.5 
			111.8,82.6 111.8,82.6 111.6,82.6 111.4,82.6 111.2,82.6 111.1,82.6 110.9,82.6 110.7,82.6 110.5,82.6 110.3,82.6 110.2,82.6 
			110,82.6 109.8,82.6 109.6,82.6 109.4,82.6 109.3,82.6 109.1,82.6 108.9,82.6 108.7,82.6 108.5,82.6 108.4,82.6 108.2,82.6 
			108,82.6 107.8,82.6 107.6,82.6 107.5,82.6 107.3,82.6 107.1,82.6 106.9,82.6 106.7,82.6 106.6,82.6 106.4,82.6 106.2,82.6 
			106,82.6 105.8,82.6 105.7,82.6 105.5,82.6 105.3,82.6 105.1,82.6 104.9,82.6 104.8,82.6 104.6,82.6 104.4,82.6 104.2,82.6 
			104,82.6 103.9,82.6 103.7,82.6 103.5,82.6 103.3,82.6 103.1,82.6 103,82.6 102.8,82.6 102.6,82.6 102.4,82.6 102.2,82.6 
			102.1,82.6 101.9,82.6 101.7,82.6 101.5,82.6 101.3,82.6 101.2,82.6 101,82.6 100.8,82.6 100.6,82.6 100.4,82.6 100.3,82.6 
			100.1,82.6 99.9,82.6 99.7,82.6 99.5,82.6 99.4,82.6 99.2,82.6 99,82.6 98.8,82.6 98.6,82.6 98.5,82.6 98.3,82.6 98.1,82.6 
			97.9,82.6 97.7,82.6 97.6,82.6 97.4,82.6 97.2,82.6 97,82.6 96.8,82.6 96.7,82.6 96.5,82.6 96.3,82.6 96.1,82.6 95.9,82.6 
			95.8,82.6 95.6,82.6 95.4,82.6 95.2,82.6 95.1,82.6 94.9,82.6 94.7,82.6 94.5,82.6 94.3,82.6 94.2,82.6 94,82.6 93.8,82.6 
			93.6,82.6 93.4,82.6 93.3,82.6 93.1,82.6 92.9,82.6 92.7,82.6 92.5,82.6 92.4,82.6 92.2,82.6 92,82.6 91.8,82.6 91.6,82.6 
			91.5,82.6 91.3,82.6 91.1,82.6 91.1,82.6 90.9,82.6 90.7,82.6 90.6,82.6 90.4,82.6 90.2,82.6 90,82.6 89.9,82.6 89.9,82.6 
			89.8,82.6 89.7,82.6 89.5,82.6 89.3,82.6 89.1,82.6 88.9,82.6 88.8,82.6 88.6,82.6 88.4,82.6 88.2,82.6 88,82.6 87.9,82.6 
			87.7,82.6 87.5,82.6 87.3,82.6 87.1,82.6 87,82.6 86.8,82.6 86.6,82.6 86.4,82.6 86.2,82.6 86.1,82.6 85.9,82.6 85.7,82.6 
			85.5,82.6 85.3,82.6 85.2,82.6 85,82.6 84.8,82.6 84.6,82.6 84.4,82.6 84.3,82.6 84.1,82.6 83.9,82.6 83.7,82.6 83.5,82.6 
			83.4,82.6 83.2,82.6 83,82.6 82.8,82.6 82.6,82.6 82.5,82.6 82.3,82.6 82.1,82.6 81.9,82.6 81.7,82.6 81.6,82.6 81.4,82.6 
			81.2,82.6 81,82.6 80.8,82.6 80.7,82.6 80.5,82.6 80.3,82.6 80.1,82.6 79.9,82.6 79.8,82.6 79.6,82.6 79.4,82.6 79.2,82.6 
			79,82.6 78.9,82.6 78.7,82.6 78.5,82.6 78.3,82.6 78.1,82.6 78,82.6 77.8,82.6 77.6,82.6 77.4,82.6 77.2,82.6 77.1,82.6 
			76.9,82.6 76.7,82.6 76.5,82.6 76.3,82.6 76.2,82.6 76,82.6 75.8,82.6 75.6,82.6 75.5,82.6 75.3,82.6 75.1,82.6 74.9,82.6 
			74.7,82.6 74.6,82.6 74.4,82.6 74.2,82.6 74,82.6 73.8,82.6 73.7,82.6 73.5,82.6 73.3,82.6 73.1,82.6 72.9,82.6 72.8,82.6 
			72.6,82.6 72.4,82.6 72.2,82.6 72,82.6 71.9,82.6 71.7,82.6 71.5,82.6 71.3,82.6 71.1,82.6 71,82.6 70.8,82.6 70.6,82.6 
			70.4,82.6 70.2,82.6 70.1,82.6 69.9,82.6 69.7,82.6 69.5,82.6 69.3,82.6 69.2,82.6 69,82.6 68.8,82.6 68.6,82.6 68.4,82.6 
			68.3,82.6 68.1,82.6 67.9,82.6 67.8,82.6 67.7,82.3 67.5,80.9 67.4,79.4 67.2,78 67,76.5 66.8,75.1 66.6,73.6 66.8,73.6 67,73.6 
			67.2,73.6 67.4,73.6 67.5,73.6 67.7,73.6 67.9,73.6 68.1,73.6 68.3,73.6 68.4,73.6 68.6,73.6 68.8,73.6 69,73.6 69.2,73.6 
			69.3,73.6 69.5,73.6 69.7,73.6 69.9,73.6 70.1,73.6 70.2,73.6 70.4,73.6 70.6,73.6 70.8,73.6 71,73.6 71.1,73.6 71.3,73.6 
			71.5,73.6 71.7,73.6 71.9,73.6 72,73.6 72.2,73.6 72.4,73.6 72.6,73.6 72.8,73.6 72.9,73.6 73.1,73.6 73.3,73.6 73.5,73.6 
			73.7,73.6 73.8,73.6 74,73.6 74.2,73.6 74.4,73.6 74.6,73.6 74.7,73.6 74.9,73.6 75.1,73.6 75.3,73.6 75.5,73.6 75.6,73.6 
			75.8,73.6 76,73.6 76.2,73.6 76.3,73.6 76.5,73.6 76.7,73.6 76.9,73.6 77.1,73.6 77.2,73.6 77.4,73.6 77.6,73.6 77.8,73.6 
			78,73.6 78.1,73.6 78.3,73.6 78.5,73.6 78.7,73.6 78.9,73.6 79,73.6 79.2,73.6 79.4,73.6 79.6,73.6 79.8,73.6 79.9,73.6 
			80.1,73.6 80.3,73.6 80.5,73.6 80.7,73.6 80.8,73.6 81,73.6 81.2,73.6 81.4,73.6 81.6,73.6 81.7,73.6 81.9,73.6 82.1,73.6 
			82.3,73.6 82.5,73.6 82.6,73.6 82.8,73.6 83,73.6 83.2,73.6 83.4,73.6 83.5,73.6 83.7,73.6 83.9,73.6 84.1,73.6 84.3,73.6 
			84.4,73.6 84.6,73.6 84.8,73.6 85,73.6 85.2,73.6 85.3,73.6 85.5,73.6 85.7,73.6 85.9,73.6 86.1,73.6 86.2,73.6 86.4,73.6 
			86.6,73.6 86.8,73.6 87,73.6 87.1,73.6 87.3,73.6 87.5,73.6 87.7,73.6 87.9,73.6 88,73.6 88.2,73.6 88.4,73.6 88.6,73.6 
			88.8,73.6 88.9,73.6 89.1,73.6 89.3,73.6 89.5,73.6 89.7,73.6 89.8,73.6 		"/>
		<polygon id="_337846384" class="st5" points="68.6,92 111,92 110.2,100.9 69.3,100.8 		"/>
		<polygon id="_337846192" class="st5" points="69.9,105.7 79.2,105.7 79.8,113 89.9,115.5 100.2,112.6 100.9,100.7 110.2,100.6 
			108.6,119.9 89.9,125.3 71.1,119.8 		"/>
	</g>
	<g>
		<polygon id="_337846792" class="st6" points="89.9,92 111.8,82.6 112.7,73.6 89.9,83.1 		"/>
		<polygon id="_337846480" class="st6" points="89.9,73.6 90,73.6 90.2,73.6 90.4,73.6 90.6,73.6 90.7,73.6 90.9,73.6 91.1,73.6 
			91.3,73.6 91.5,73.6 91.6,73.6 91.8,73.6 92,73.6 92.2,73.6 92.4,73.6 92.5,73.6 92.7,73.6 92.9,73.6 93.1,73.6 93.3,73.6 
			93.4,73.6 93.6,73.6 93.8,73.6 94,73.6 94.2,73.6 94.3,73.6 94.5,73.6 94.7,73.6 94.9,73.6 95.1,73.6 95.2,73.6 95.4,73.6 
			95.6,73.6 95.8,73.6 95.9,73.6 96.1,73.6 96.3,73.6 96.5,73.6 96.7,73.6 96.8,73.6 97,73.6 97.2,73.6 97.4,73.6 97.6,73.6 
			97.7,73.6 97.9,73.6 98.1,73.6 98.3,73.6 98.5,73.6 98.6,73.6 98.8,73.6 99,73.6 99.2,73.6 99.4,73.6 99.5,73.6 99.7,73.6 
			99.9,73.6 100.1,73.6 100.3,73.6 100.4,73.6 100.6,73.6 100.8,73.6 101,73.6 101.2,73.6 101.3,73.6 101.5,73.6 101.7,73.6 
			101.9,73.6 102.1,73.6 102.2,73.6 102.4,73.6 102.6,73.6 102.8,73.6 103,73.6 103.1,73.6 103.3,73.6 103.5,73.6 103.7,73.6 
			103.9,73.6 104,73.6 104.2,73.6 104.4,73.6 104.6,73.6 104.8,73.6 104.9,73.6 105.1,73.6 105.3,73.6 105.5,73.6 105.7,73.6 
			105.8,73.6 106,73.6 106.2,73.6 106.4,73.6 106.6,73.6 106.7,73.6 106.9,73.6 107.1,73.6 107.3,73.6 107.5,73.6 107.6,73.6 
			107.8,73.6 108,73.6 108.2,73.6 108.4,73.6 108.5,73.6 108.7,73.6 108.9,73.6 109.1,73.6 109.3,73.6 109.4,73.6 109.6,73.6 
			109.8,73.6 110,73.6 110.2,73.6 110.3,73.6 110.5,73.6 110.7,73.6 110.9,73.6 111.1,73.6 111.2,73.6 111.4,73.6 111.6,73.6 
			111.8,73.6 112,73.6 112.1,73.6 112.3,73.6 112.5,73.6 112.7,73.6 112.5,75.4 112.3,77.2 112.1,79 112,80.7 111.8,82.5 
			111.8,82.6 111.8,82.6 111.6,82.6 111.4,82.6 111.2,82.6 111.1,82.6 110.9,82.6 110.7,82.6 110.5,82.6 110.3,82.6 110.2,82.6 
			110,82.6 109.8,82.6 109.6,82.6 109.4,82.6 109.3,82.6 109.1,82.6 108.9,82.6 108.7,82.6 108.5,82.6 108.4,82.6 108.2,82.6 
			108,82.6 107.8,82.6 107.6,82.6 107.5,82.6 107.3,82.6 107.1,82.6 106.9,82.6 106.7,82.6 106.6,82.6 106.4,82.6 106.2,82.6 
			106,82.6 105.8,82.6 105.7,82.6 105.5,82.6 105.3,82.6 105.1,82.6 104.9,82.6 104.8,82.6 104.6,82.6 104.4,82.6 104.2,82.6 
			104,82.6 103.9,82.6 103.7,82.6 103.5,82.6 103.3,82.6 103.1,82.6 103,82.6 102.8,82.6 102.6,82.6 102.4,82.6 102.2,82.6 
			102.1,82.6 101.9,82.6 101.7,82.6 101.5,82.6 101.3,82.6 101.2,82.6 101,82.6 100.8,82.6 100.6,82.6 100.4,82.6 100.3,82.6 
			100.1,82.6 99.9,82.6 99.7,82.6 99.5,82.6 99.4,82.6 99.2,82.6 99,82.6 98.8,82.6 98.6,82.6 98.5,82.6 98.3,82.6 98.1,82.6 
			97.9,82.6 97.7,82.6 97.6,82.6 97.4,82.6 97.2,82.6 97,82.6 96.8,82.6 96.7,82.6 96.5,82.6 96.3,82.6 96.1,82.6 95.9,82.6 
			95.8,82.6 95.6,82.6 95.4,82.6 95.2,82.6 95.1,82.6 94.9,82.6 94.7,82.6 94.5,82.6 94.3,82.6 94.2,82.6 94,82.6 93.8,82.6 
			93.6,82.6 93.4,82.6 93.3,82.6 93.1,82.6 92.9,82.6 92.7,82.6 92.5,82.6 92.4,82.6 92.2,82.6 92,82.6 91.8,82.6 91.6,82.6 
			91.5,82.6 91.3,82.6 91.1,82.6 91.1,82.6 90.9,82.6 90.7,82.6 90.6,82.6 90.4,82.6 90.2,82.6 90,82.6 89.9,82.6 		"/>
		<polygon id="_337845784" class="st6" points="89.9,92 111,92 110.2,100.9 89.9,100.8 		"/>
		<polygon id="_337845328" class="st6" points="89.9,115.5 100.2,112.6 100.9,100.7 110.2,100.6 108.6,119.9 89.9,125.3 89.9,125.3 
					"/>
	</g>
</g>
</svg>
