<?xml version="1.0" encoding="utf-8"?>
<!-- Generator: Adobe Illustrator 20.0.0, SVG Export Plug-In . SVG Version: 6.00 Build 0)  -->
<svg version="1.1" id="Layer_1" xmlns="http://www.w3.org/2000/svg" xmlns:xlink="http://www.w3.org/1999/xlink" x="0px" y="0px"
	 viewBox="0 0 180 180" style="enable-background:new 0 0 180 180;" xml:space="preserve">
<style type="text/css">
	.st0{fill:#FFFFFF;}
	.st1{fill:#0C81C1;}
</style>
<path class="st0" d="M81.4,176.7L3.2,98.5c-4.7-4.7-4.7-12.3,0-17L81.4,3.3c4.7-4.7,12.3-4.7,17,0l78.3,78.3c4.7,4.7,4.7,12.3,0,17
	l-78.3,78.3C93.7,181.4,86.1,181.4,81.4,176.7z"/>
<path class="st1" d="M176.1,81L98.9,3.8c-2.4-2.4-5.7-3.8-9-3.8l0,0c-3.3,0-6.6,1.4-9,3.8L64.3,20.4l19.4,19.4
	c1.9-0.9,3.8-1.4,6.2-1.4c8.1,0,14.2,6.2,14.2,14.2c0,2.4-0.5,4.3-1.4,6.2l18.9,18.9c1.9-0.9,3.8-1.4,6.2-1.4
	c8.1,0,14.2,6.2,14.2,14.2s-6.2,14.2-14.2,14.2s-14.2-6.2-14.2-14.2c0-2.4,0.5-4.3,1.4-6.2L96.1,65.4c-0.5,0-0.9,0.5-1.4,0.5v49.3
	c5.7,1.9,9.5,7.1,9.5,13.3c0,8.1-6.2,14.2-14.2,14.2s-14.2-6.2-14.2-14.2c0-6.2,3.8-11.4,9.5-13.3V65.4c-5.7-1.9-9.5-7.1-9.5-13.3
	c0-2.4,0.5-4.3,1.4-6.2L57.7,26.5L3.7,81c-2.4,2.4-3.8,5.7-3.8,9c0,3.3,1.4,6.6,3.8,9l77.2,77.2l0,0c2.4,2.4,5.7,3.8,9,3.8
	c3.3,0,6.6-1.4,9-3.8L176.1,99c2.4-2.4,3.8-5.7,3.8-9C179.9,86.7,178.5,83.4,176.1,81z"/>
</svg>
