<?xml version="1.0" encoding="utf-8"?>
<!-- Generator: Adobe Illustrator 20.0.0, SVG Export Plug-In . SVG Version: 6.00 Build 0)  -->
<svg version="1.1" id="Layer_1" xmlns="http://www.w3.org/2000/svg" xmlns:xlink="http://www.w3.org/1999/xlink" x="0px" y="0px"
	 viewBox="0 0 180 180" style="enable-background:new 0 0 180 180;" xml:space="preserve">
<style type="text/css">
	.st0{fill:#F6F6F6;}
	.st1{font-family:'Geometos';}
	.st2{font-size:44.7247px;}
	.st3{fill:#0C81C1;}
	.st4{fill:#EBEBEB;}
	.st5{fill:#0872A1;}
	.st6{fill:#FFFFFF;}
	.st7{fill:#333333;}
</style>
<circle class="st0" cx="90.3" cy="89.6" r="90"/>
<text transform="matrix(1 0 0 1 45.2964 104.2466)" class="st0 st1 st2">ES6</text>
<g>
	<g id="形状_1">
		<g>
			<polygon class="st3" points="54.9,59.2 61.3,131.5 90.2,139.6 119.3,131.5 125.7,59.2 			"/>
		</g>
	</g>
	<g id="形状_1_1_">
		<g>
			<path class="st4" d="M90.3,74H68l0.2,2.4l2.2,24.4h19.8V92H78.6l-0.8-9.1h12.5V74z M80.4,112.3l-0.6-7.1h-8.9l1.2,13.9l18.2,5
				l0,0V115l0,0L80.4,112.3z"/>
		</g>
	</g>
	<g id="形状_1_2_">
		<g>
			<polygon class="st5" points="90.3,65.1 90.3,133.4 113.7,126.9 119.2,65.1 			"/>
		</g>
	</g>
	<g id="形状_1_3_">
		<g>
			<path class="st6" d="M90.3,100.8h10.9l-1,11.5l-9.9,2.7v9.2l18.2-5l0.1-1.5l2.1-23.3l0.2-2.4H90.3L90.3,100.8L90.3,100.8z
				 M90.3,74v8.9h21.4l0.2-2l0.4-4.5l0.2-2.4H90.3L90.3,74z"/>
		</g>
	</g>
	<g id="形状_1_4_">
		<g>
			<path class="st7" d="M70.1,44H66v-4.5h-4.5v13.5H66v-4.5h4.1v4.5h4.5V39.6h-4.5L70.1,44L70.1,44z M76.6,44h4v9H85v-9h4v-4.5H76.6
				V44z M98.6,44.3l-2.9-4.7H91v13.5h4.4v-6.7l3.1,4.8h0.1l3.1-4.8v6.7h4.5V39.6h-4.7L98.6,44.3z M112.9,48.6v-9h-4.5v13.5h10.8
				v-4.5H112.9z"/>
		</g>
	</g>
</g>
</svg>
