<?xml version="1.0" encoding="utf-8"?>
<!-- Generator: Adobe Illustrator 20.0.0, SVG Export Plug-In . SVG Version: 6.00 Build 0)  -->
<svg version="1.1" id="Layer_1" xmlns="http://www.w3.org/2000/svg" xmlns:xlink="http://www.w3.org/1999/xlink" x="0px" y="0px"
	 viewBox="0 0 180 180" style="enable-background:new 0 0 180 180;" xml:space="preserve">
<style type="text/css">
	.st0{fill:#F6F6F6;}
	.st1{font-family:'Geometos';}
	.st2{font-size:44.7247px;}
	.st3{fill:#0C81C1;}
	.st4{fill:#EBEBEB;}
	.st5{fill:#0872A1;}
	.st6{fill:#FFFFFF;}
	.st7{fill:#333333;}
</style>
<circle class="st0" cx="90.1" cy="90.5" r="90"/>
<text transform="matrix(1 0 0 1 45.0732 105.2285)" class="st0 st1 st2">ES6</text>
<g>
	<g id="形状_1">
		<g>
			<polygon class="st3" points="54.6,60.2 61.1,132.5 90,140.5 119,132.5 125.5,60.2 			"/>
		</g>
	</g>
	<g id="形状_1_1_">
		<g>
			<path class="st4" d="M90.1,75H67.8v8.9h22.2V75z M80.1,113.3l-0.6-7.1h-8.9l1.2,13.9l18.2,5l0,0V116l0,0L80.1,113.3z"/>
		</g>
	</g>
	<g id="形状_1_2_">
		<g>
			<polygon class="st5" points="90.1,66.1 90.1,134.4 113.5,127.9 119,66.1 			"/>
		</g>
	</g>
	<g id="形状_1_3_">
		<g>
			<path class="st6" d="M102.6,83.9l-2.6,29.5L90,116v9.2l18.2-5l0.1-1.5l2.1-23.3l1-11.5H102.6z M90,75v8.9h21.4l0.2-2l0.4-4.5
				l0.2-2.4L90,75L90,75z"/>
		</g>
	</g>
	<g>
		<polygon class="st7" points="77.3,50 77.3,54.6 88.7,54.6 88.7,40.5 84,40.5 84,50 		"/>
		<polygon class="st7" points="102.8,51.7 96,43.6 102.3,43.6 102.3,40.5 91.5,40.5 91.5,43.4 98.3,51.6 91,51.6 91,54.6 
			102.8,54.6 		"/>
	</g>
</g>
</svg>
