<?xml version="1.0" encoding="utf-8"?>
<!-- Generator: Adobe Illustrator 20.0.0, SVG Export Plug-In . SVG Version: 6.00 Build 0)  -->
<svg version="1.1" id="Layer_1" xmlns="http://www.w3.org/2000/svg" xmlns:xlink="http://www.w3.org/1999/xlink" x="0px" y="0px"
	 viewBox="0 0 180 180" style="enable-background:new 0 0 180 180;" xml:space="preserve">
<style type="text/css">
	.st0{fill:#F6F6F6;}
	.st1{font-family:'Geometos';}
	.st2{font-size:44.7247px;}
	.st3{fill:#0C82C1;}
	.st4{fill:#333333;}
	.st5{fill:none;}
</style>
<circle class="st0" cx="90.6" cy="89.9" r="90"/>
<text transform="matrix(1 0 0 1 45.6324 104.5599)" class="st0 st1 st2">ES6</text>
<g>
	<g>
		<path class="st3" d="M90.1,120.3c-0.3,0-0.7-0.1-0.9-0.3l-3-1.8c-0.4-0.3-0.2-0.3-0.1-0.4c0.6-0.2,0.7-0.3,1.4-0.6
			c0.1,0,0.2,0,0.2,0l2.3,1.4c0.1,0,0.2,0,0.3,0l9-5.2c0.1,0,0.1-0.1,0.1-0.2v-10.4c0-0.1-0.1-0.2-0.1-0.2l-9-5.2
			c-0.1,0-0.2,0-0.3,0l-9,5.2c-0.1,0-0.1,0.1-0.1,0.2v10.4c0,0.1,0.1,0.2,0.1,0.2l2.5,1.4c1.3,0.7,2.2-0.1,2.2-0.9v-10.2
			c0-0.1,0.1-0.3,0.3-0.3H87c0.1,0,0.3,0.1,0.3,0.3V114c0,1.8-1,2.8-2.7,2.8c-0.5,0-0.9,0-2.1-0.6l-2.4-1.4c-0.6-0.3-0.9-1-0.9-1.6
			v-10.4c0-0.7,0.4-1.3,0.9-1.6l9-5.2c0.6-0.3,1.3-0.3,1.9,0l9,5.2c0.6,0.3,0.9,1,0.9,1.6v10.4c0,0.7-0.4,1.3-0.9,1.6l-9,5.2
			C90.7,120.3,90.4,120.3,90.1,120.3z"/>
		<path class="st3" d="M92.8,113.2c-3.9,0-4.8-1.8-4.8-3.3c0-0.1,0.1-0.3,0.3-0.3h1.2c0.1,0,0.2,0.1,0.3,0.2
			c0.2,1.2,0.7,1.8,3.1,1.8c1.9,0,2.7-0.4,2.7-1.4c0-0.6-0.2-1-3.2-1.3c-2.5-0.2-4-0.8-4-2.8c0-1.8,1.5-2.9,4.1-2.9
			c2.9,0,4.3,1,4.5,3.1c0,0.1,0,0.1-0.1,0.2c0,0.1-0.1,0.1-0.2,0.1h-1.2c-0.1,0-0.2-0.1-0.3-0.2c-0.3-1.2-1-1.6-2.8-1.6
			c-2.1,0-2.3,0.7-2.3,1.3c0,0.7,0.3,0.8,3.1,1.2c2.8,0.4,4.1,0.9,4.1,2.8C97.3,112.1,95.7,113.2,92.8,113.2z"/>
	</g>
	<path class="st3" d="M105.8,102.3c0,1-0.8,1.7-1.7,1.7c-0.9,0-1.7-0.8-1.7-1.7c0-1,0.8-1.7,1.7-1.7
		C105,100.6,105.8,101.3,105.8,102.3z M102.6,102.3c0,0.8,0.7,1.5,1.4,1.5c0.8,0,1.5-0.7,1.5-1.5c0-0.8-0.7-1.4-1.5-1.4
		C103.3,100.9,102.6,101.5,102.6,102.3z M103.4,101.4h0.7c0.2,0,0.7,0,0.7,0.5c0,0.4-0.2,0.4-0.4,0.5c0.3,0,0.3,0.2,0.3,0.4
		c0,0.2,0,0.4,0.1,0.5h-0.4c0-0.1-0.1-0.6-0.1-0.6c0-0.1-0.1-0.2-0.2-0.2h-0.3v0.8h-0.4L103.4,101.4L103.4,101.4z M103.8,102.2h0.3
		c0.2,0,0.3-0.2,0.3-0.3c0-0.3-0.2-0.3-0.3-0.3h-0.3L103.8,102.2L103.8,102.2z"/>
	<path class="st4" d="M62.2,79.8c0-0.4-0.2-0.8-0.6-1l-9.5-5.5c-0.2-0.1-0.3-0.1-0.5-0.2c0,0-0.1,0-0.1,0c-0.2,0-0.4,0.1-0.5,0.2
		l-9.5,5.5c-0.4,0.2-0.6,0.6-0.6,1l0,14.8c0,0.2,0.1,0.4,0.3,0.5c0.2,0.1,0.4,0.1,0.6,0l5.7-3.2c0.4-0.2,0.6-0.6,0.6-1v-6.9
		c0-0.4,0.2-0.8,0.6-1l2.4-1.4c0.2-0.1,0.4-0.2,0.6-0.2c0.2,0,0.4,0.1,0.6,0.2l2.4,1.4c0.4,0.2,0.6,0.6,0.6,1v6.9
		c0,0.4,0.2,0.8,0.6,1l5.7,3.2c0.2,0.1,0.4,0.1,0.6,0c0.2-0.1,0.3-0.3,0.3-0.5L62.2,79.8z"/>
	<path class="st4" d="M108.1,59.5c-0.2-0.1-0.4-0.1-0.6,0c-0.2,0.1-0.3,0.3-0.3,0.5v14.6c0,0.1-0.1,0.3-0.2,0.3
		c-0.1,0.1-0.3,0.1-0.4,0l-2.4-1.4c-0.4-0.2-0.8-0.2-1.1,0l-9.5,5.5c-0.4,0.2-0.6,0.6-0.6,1v11c0,0.4,0.2,0.8,0.6,1l9.5,5.5
		c0.4,0.2,0.8,0.2,1.2,0l9.5-5.5c0.4-0.2,0.6-0.6,0.6-1V63.7c0-0.4-0.2-0.8-0.6-1L108.1,59.5z M107.2,87.5c0,0.1-0.1,0.2-0.1,0.2
		l-3.3,1.9c-0.1,0.1-0.2,0.1-0.3,0l-3.3-1.9c-0.1-0.1-0.1-0.1-0.1-0.2v-3.8c0-0.1,0.1-0.2,0.1-0.2l3.3-1.9c0.1-0.1,0.2-0.1,0.3,0
		l3.3,1.9c0.1,0.1,0.1,0.1,0.1,0.2L107.2,87.5L107.2,87.5z"/>
	<path class="st4" d="M139.8,83.6c0.4-0.2,0.6-0.6,0.6-1v-2.7c0-0.4-0.2-0.8-0.6-1l-9.5-5.5c-0.4-0.2-0.8-0.2-1.2,0l-9.5,5.5
		c-0.4,0.2-0.6,0.6-0.6,1v11c0,0.4,0.2,0.8,0.6,1l9.5,5.4c0.3,0.2,0.8,0.2,1.1,0l5.7-3.2c0.2-0.1,0.3-0.3,0.3-0.5
		c0-0.2-0.1-0.4-0.3-0.5l-9.6-5.5c-0.2-0.1-0.3-0.3-0.3-0.5v-3.4c0-0.2,0.1-0.4,0.3-0.5l3-1.7c0.2-0.1,0.4-0.1,0.6,0l3,1.7
		c0.2,0.1,0.3,0.3,0.3,0.5v2.7c0,0.2,0.1,0.4,0.3,0.5c0.2,0.1,0.4,0.1,0.6,0L139.8,83.6z"/>
	<path class="st3" d="M129.6,83.1c0.1,0,0.2,0,0.2,0l1.8,1.1c0.1,0,0.1,0.1,0.1,0.2v2.1c0,0.1,0,0.2-0.1,0.2l-1.8,1.1
		c-0.1,0-0.2,0-0.2,0l-1.8-1.1c-0.1,0-0.1-0.1-0.1-0.2v-2.1c0-0.1,0-0.2,0.1-0.2L129.6,83.1z"/>
	<g>
		<path id="XMLID_143_" class="st3" d="M78.2,73.5c-0.4-0.2-0.8-0.2-1.1,0L67.6,79c-0.4,0.2-0.6,0.6-0.6,1v10.9c0,0.4,0.2,0.8,0.6,1
			l9.5,5.5c0.4,0.2,0.8,0.2,1.1,0l9.5-5.5c0.4-0.2,0.6-0.6,0.6-1V79.9c0-0.4-0.2-0.8-0.6-1L78.2,73.5z"/>
	</g>
	<path class="st5" d="M78.2,73.5c-0.4-0.2-0.8-0.2-1.1,0L67.6,79c-0.4,0.2-0.6,0.6-0.6,1v10.9c0,0.4,0.2,0.8,0.6,1l9.5,5.5
		c0.4,0.2,0.8,0.2,1.1,0l9.5-5.5c0.4-0.2,0.6-0.6,0.6-1V79.9c0-0.4-0.2-0.8-0.6-1L78.2,73.5z"/>
	<path class="st5" d="M88.3,90.9V79.9c0-0.4-0.2-0.8-0.6-1l-9.5-5.5c-0.1-0.1-0.2-0.1-0.3-0.1l10.4,17.8
		C88.3,91.1,88.3,91,88.3,90.9z"/>
	<path class="st5" d="M67.5,79c-0.4,0.2-0.6,0.6-0.6,1v10.9c0,0.4,0.3,0.8,0.6,1l9.5,5.5c0.2,0.1,0.5,0.2,0.7,0.1L67.5,79L67.5,79z"
		/>
</g>
</svg>
