<?xml version="1.0" encoding="utf-8"?>
<!-- Generator: Adobe Illustrator 20.0.0, SVG Export Plug-In . SVG Version: 6.00 Build 0)  -->
<svg version="1.1" id="Layer_1" xmlns="http://www.w3.org/2000/svg" xmlns:xlink="http://www.w3.org/1999/xlink" x="0px" y="0px"
	 viewBox="0 0 180 180" style="enable-background:new 0 0 180 180;" xml:space="preserve">
<style type="text/css">
	.st0{fill:#F6F6F6;}
	.st1{font-family:'Geometos';}
	.st2{font-size:44.7247px;}
	.st3{fill:#0C82C1;}
</style>
<circle class="st0" cx="89.8" cy="90.8" r="90"/>
<text transform="matrix(1 0 0 1 44.7958 105.4603)" class="st0 st1 st2">ES6</text>
<g>
	<g transform="translate(0.000000,125.000000) scale(0.100000,-0.100000)">
		<path class="st3" d="M675.3,816c-7.4-16.1-16.1-44.5-17.3-65.5l-3.7-37.1l-102.6-6.2c-156.9-9.9-150.8,11.1-150.8-430V-86.1
			l35.8-35.8c21-21,49.4-35.8,68-35.8c32.1,0,32.1,1.2,24.7,65.5c-3.7,38.3,1.2,103.8,12.4,161.9l19.8,97.6l-38.3,48.2
			c-21,26-45.7,72.9-55.6,105c-23.5,77.9-21,92.7,7.4,39.5c43.3-81.6,126-134.7,187.8-118.6c40.8,11.1,71.7-12.4,71.7-53.1
			c0-42-33.4-66.7-79.1-54.4c-16.1,3.7-32.1,2.5-35.8-3.7c-16.1-26-33.4-184.1-26-233.6l7.4-54.4h85.3h85.3v84
			c0,49.4,6.2,90.2,14.8,98.9c9.9,9.9,63,14.8,159.4,14.8c165.6,0,159.4,4.9,159.4-118.6v-79.1h56.8c45.7,0,63,6.2,92.7,35.8
			l35.8,35.8v232.3c0,228.6,0,231.1,23.5,210.1c34.6-30.9,44.5-87.7,21-119.9c-16.1-23.5-16.1-30.9-1.2-61.8
			c27.2-51.9,40.8-53.1,54.4-2.5c9.9,35.8,8.7,50.7-3.7,64.3c-9.9,11.1-21,39.5-26,63c-4.9,23.5-21,63-37.1,87.7
			c-23.5,35.8-29.7,64.3-32.1,158.2c-6.2,148.3-19.8,161.9-160.6,161.9h-97.6V515.7c0-254.6-16.1-287.9-137.2-275.6
			c-59.3,4.9-47,27.2,19.8,32.1c89,6.2,92.7,18.5,92.7,280.5c0,297.8,8.7,283-174.2,287.9C695,844.4,688.9,843.1,675.3,816z"/>
	</g>
	<rect x="57.3" y="69.3" class="st0" width="6.3" height="6.3"/>
</g>
</svg>
