<?xml version="1.0" encoding="utf-8"?>
<!-- Generator: Adobe Illustrator 20.0.0, SVG Export Plug-In . SVG Version: 6.00 Build 0)  -->
<svg version="1.1" id="Layer_1" xmlns="http://www.w3.org/2000/svg" xmlns:xlink="http://www.w3.org/1999/xlink" x="0px" y="0px"
	 viewBox="0 0 180 180" style="enable-background:new 0 0 180 180;" xml:space="preserve">
<style type="text/css">
	.st0{fill:#0C81C1;}
	.st1{fill:#FAFAFA;}
</style>
<rect class="st0" width="180" height="180"/>
<g>
	<path class="st1" d="M134.5,103.4l-10.1,3.4l3.5,10.5c1.4,4.2-0.9,8.8-5.1,10.3c-0.9,0.3-1.9,0.4-2.8,0.4c-3.3-0.1-6.4-2.2-7.5-5.5
		l-3.5-10.5l-20.9,7l3.5,10.5c1.4,4.2-0.9,8.8-5.1,10.3c-0.9,0.3-1.9,0.4-2.8,0.4c-3.3-0.1-6.4-2.2-7.5-5.5l-3.5-10.5l-10.1,3.4
		c-0.9,0.3-1.9,0.4-2.8,0.4c-3.3-0.1-6.4-2.2-7.5-5.5c-1.4-4.2,0.9-8.8,5.1-10.3l10.1-3.4l-6.7-20.1L50.7,92
		c-0.9,0.3-1.9,0.4-2.8,0.4c-3.3-0.1-6.4-2.2-7.5-5.5c-1.4-4.2,0.9-8.8,5.1-10.3l10.1-3.4l-3.5-10.5c-1.4-4.2,0.9-8.8,5.1-10.3
		c4.2-1.4,8.8,0.9,10.3,5.1L71,68.1l20.9-7l-3.5-10.5c-1.4-4.2,0.9-8.8,5.1-10.3c4.2-1.4,8.8,0.9,10.3,5.1l3.5,10.5l10.1-3.4
		c4.2-1.4,8.8,0.9,10.3,5.1c1.4,4.2-0.9,8.8-5.1,10.3l-10.1,3.4l6.7,20.1l10.1-3.4c4.2-1.4,8.8,0.9,10.3,5.1
		C141,97.4,138.7,102,134.5,103.4z"/>
	<rect x="79" y="79.4" transform="matrix(0.9482 -0.3175 0.3175 0.9482 -23.9209 33.2366)" class="st0" width="22" height="21.2"/>
</g>
</svg>
